<svg width="24" height="24" viewBox="0 0 24 24" fill="none" xmlns="http://www.w3.org/2000/svg">
<path d="M17 8.00714L15.9929 7L12 10.9929L8.00714 7L7 8.00714L10.9929 12L7 15.9929L8.00714 17L12 13.0071L15.9929 17L17 15.9929L13.0071 12L17 8.00714Z" fill="white"/>
<path fill-rule="evenodd" clip-rule="evenodd" d="M3 7.916L3 16.585C3 19.605 5.139 21.5 8.166 21.5L16.334 21.5C19.361 21.5 21.5 19.615 21.5 16.585L21.5 7.916C21.5 4.886 19.361 3 16.334 3L8.166 3C5.139 3 3 4.886 3 7.916Z" stroke="white" stroke-width="1.5" stroke-linecap="round" stroke-linejoin="round"/>
</svg>
