<svg width="27" height="27" viewBox="0 0 27 27" fill="none" xmlns="http://www.w3.org/2000/svg">
<path fill-rule="evenodd" clip-rule="evenodd" d="M9.61631 13.2427C9.95606 12.9068 10.5039 12.9079 10.8414 13.2449L12.6335 15.0361V3.6745C12.6335 3.19872 13.0217 2.8125 13.4998 2.8125C13.9779 2.8125 14.3671 3.19872 14.3671 3.6745V17.1239C14.3671 17.4732 14.1556 17.7877 13.8305 17.921C13.5065 18.0542 13.133 17.9792 12.8855 17.7329L9.61406 14.4618C9.44644 14.2939 9.36206 14.0733 9.36206 13.8528C9.36206 13.6322 9.44644 13.4106 9.61631 13.2427ZM15.3452 15.29C15.1731 15.122 15.0876 14.9004 15.0876 14.6776C15.0876 14.4593 15.1708 14.2399 15.3385 14.0709L16.1563 13.2469C16.4927 12.9088 17.0406 12.9055 17.3814 13.2402C17.7223 13.5738 17.7246 14.119 17.3882 14.4593L16.5692 15.2844C16.234 15.6224 15.685 15.6258 15.3452 15.29ZM8.11907 23.2864C8.11907 22.7894 7.73095 22.3859 7.25283 22.3859C5.44947 22.3859 3.98248 20.8609 3.98248 18.9862V13.2861C3.98248 11.4196 5.44497 9.89927 7.24158 9.89927H8.30019C8.77831 9.89927 9.16643 9.49579 9.16643 8.99876C9.16643 8.50173 8.77831 8.09825 8.30019 8.09825H7.24158C4.48873 8.09825 2.25 10.4255 2.25 13.2861V18.9862C2.25 21.8538 4.49435 24.1869 7.25283 24.1869C7.73095 24.1869 8.11907 23.7834 8.11907 23.2864ZM24.75 13.2984V18.9985C24.75 21.859 22.5113 24.1875 19.7584 24.1875H11.1928C10.7146 24.1875 10.3276 23.7829 10.3276 23.287C10.3276 22.7888 10.7146 22.3853 11.1928 22.3853H19.7584C21.555 22.3853 23.0175 20.8661 23.0175 18.9985V13.2984C23.0175 11.4237 21.5505 9.89867 19.7472 9.89867H18.6998C18.2217 9.89867 17.8347 9.49637 17.8347 8.99817C17.8347 8.50113 18.2217 8.09766 18.6998 8.09766H19.7472C22.5056 8.09766 24.75 10.4308 24.75 13.2984Z" fill="white"/>
</svg>
