<svg width="21" height="21" viewBox="0 0 21 21" fill="none" xmlns="http://www.w3.org/2000/svg">
<g clip-path="url(#clip0)">
<path d="M7.28572 5V11.4167H9.16071V16.6667L13.5357 9.66667H11.0357L12.9107 5H7.28572Z" fill="white"/>
<path d="M11.2769 16.1255C11.2271 16.1255 11.189 16.1006 11.1626 16.0508C11.1392 16.001 11.1274 15.9307 11.1274 15.8398C11.1274 15.8252 11.1274 15.8091 11.1274 15.7915C11.1274 15.771 11.1304 15.7329 11.1362 15.6772C11.145 15.4663 11.249 15.3433 11.4482 15.3081L11.5493 15.2993C11.6167 15.2905 11.6694 15.27 11.7075 15.2378C11.7456 15.2026 11.7734 15.1543 11.791 15.0928C11.8408 14.9258 11.8906 14.7573 11.9404 14.5874C11.9902 14.4175 12.043 14.249 12.0986 14.082C12.1279 13.9883 12.1572 13.8887 12.1865 13.7832C12.2188 13.6748 12.2524 13.5679 12.2876 13.4624C12.3257 13.3569 12.3682 13.2529 12.415 13.1504C12.4648 13.0479 12.5205 12.9541 12.582 12.8691C12.6084 12.834 12.645 12.7974 12.6919 12.7593C12.7388 12.7212 12.7915 12.6875 12.8501 12.6582C12.9116 12.626 12.9761 12.6011 13.0435 12.5835C13.1138 12.563 13.1826 12.5527 13.25 12.5527C13.3379 12.5527 13.4243 12.5806 13.5093 12.6362C13.6235 12.7153 13.7363 12.8105 13.8477 12.9219C13.959 13.0332 14.0835 13.1753 14.2212 13.3481C14.3589 13.521 14.5186 13.7305 14.7002 13.9766C14.8818 14.2197 15.1001 14.5142 15.355 14.8599C15.3931 14.9038 15.4326 14.9375 15.4736 14.9609C15.5176 14.9814 15.5688 14.9917 15.6274 14.9917H15.8779C15.9805 14.9917 16.0596 15.0166 16.1152 15.0664C16.1738 15.1133 16.2031 15.1792 16.2031 15.2642C16.2031 15.2817 16.2017 15.3022 16.1987 15.3257C16.1987 15.3491 16.1943 15.3726 16.1855 15.396L16.1021 15.6421C16.0962 15.6655 16.0918 15.686 16.0889 15.7036C16.0859 15.7212 16.0845 15.7388 16.0845 15.7563C16.0845 15.8179 16.105 15.8809 16.146 15.9453L16.6162 16.5869C16.6689 16.666 16.6953 16.7407 16.6953 16.811C16.6953 16.9165 16.6353 17.0088 16.5151 17.0879L16.3481 17.2065C16.3071 17.2329 16.2676 17.2534 16.2295 17.2681C16.1943 17.2827 16.1577 17.29 16.1196 17.29C16.0669 17.29 16.0171 17.2739 15.9702 17.2417C15.9263 17.2124 15.8838 17.1714 15.8428 17.1187C15.7021 16.9194 15.5601 16.7231 15.4165 16.5298C15.2759 16.3364 15.1323 16.1445 14.9858 15.9541C14.9185 15.8604 14.8291 15.8135 14.7178 15.8135C14.3604 15.8281 14.0059 15.8486 13.6543 15.875C13.3057 15.8984 12.9556 15.9277 12.604 15.9629C12.478 15.9746 12.3989 16.042 12.3667 16.165L12.1689 16.8901C12.1162 17.0835 11.999 17.1802 11.8174 17.1802H11.7471L11.6108 17.1626C11.5112 17.1538 11.4351 17.123 11.3823 17.0703C11.3325 17.0176 11.3076 16.9487 11.3076 16.8638C11.3076 16.8462 11.3091 16.8271 11.312 16.8066C11.3149 16.7861 11.3193 16.7642 11.3252 16.7407C11.3398 16.6821 11.3545 16.6221 11.3691 16.5605C11.3867 16.499 11.4043 16.439 11.4219 16.3804C11.4277 16.3569 11.4321 16.3364 11.4351 16.3188C11.438 16.2983 11.4395 16.2793 11.4395 16.2617C11.4395 16.1709 11.4043 16.1255 11.334 16.1255H11.2769ZM13.3687 13.8052C13.3394 13.7788 13.313 13.7568 13.2896 13.7393C13.2661 13.7217 13.2412 13.7129 13.2148 13.7129C13.1416 13.7129 13.0903 13.7642 13.061 13.8667C13.0024 14.0396 12.9453 14.2109 12.8896 14.3809C12.8369 14.5479 12.7827 14.7192 12.7271 14.895C12.7212 14.9097 12.7183 14.9229 12.7183 14.9346C12.7183 14.9463 12.7183 14.9595 12.7183 14.9741C12.7183 15.0825 12.7754 15.1367 12.8896 15.1367H12.9336C13.1094 15.1133 13.2852 15.0957 13.4609 15.084C13.6367 15.0693 13.8125 15.0576 13.9883 15.0488C14.0469 15.043 14.0923 15.0283 14.1245 15.0049C14.1597 14.9785 14.1772 14.9448 14.1772 14.9038C14.1772 14.8657 14.1597 14.8203 14.1245 14.7676C14.0015 14.6035 13.877 14.4424 13.751 14.2842C13.6279 14.123 13.5005 13.9634 13.3687 13.8052Z" fill="white"/>
</g>
<path fill-rule="evenodd" clip-rule="evenodd" d="M1 5.916L1 14.585C1 17.605 3.139 19.5 6.166 19.5L14.334 19.5C17.361 19.5 19.5 17.615 19.5 14.585L19.5 5.916C19.5 2.886 17.361 1 14.334 1L6.166 1C3.139 1 1 2.886 1 5.916Z" stroke="white" stroke-width="1.5" stroke-linecap="round" stroke-linejoin="round"/>
<defs>
<clipPath id="clip0">
<rect width="15" height="14" fill="white" transform="translate(3 3)"/>
</clipPath>
</defs>
</svg>
