<svg width="20" height="20" viewBox="0 0 20 20" fill="none" xmlns="http://www.w3.org/2000/svg">
<path d="M19.997 13.753C19.997 13.331 19.654 12.988 19.232 12.988C18.81 12.988 18.467 13.331 18.467 13.753C18.467 16.787 16.796 18.467 13.753 18.467L6.253 18.467C3.21 18.467 1.53 16.787 1.53 13.753L1.53 6.253C1.53 3.21 3.21 1.53 6.256 1.53L13.756 1.53C16.8 1.53 18.47 3.2 18.47 6.253V8.795V8.797C18.471 9.219 18.813 9.561 19.235 9.561V9.578H19.244C19.661 9.578 20 9.239 20 8.822V6.253C20 2.393 17.59 0 13.753 0L6.253 0C2.392 0 0 2.393 0 6.256L0 13.756C0 17.608 2.392 20 6.253 20L13.756 20C17.608 20 20 17.608 19.997 13.753" fill="white"/>
<path d="M7.28572 5V11.4167H9.16071V16.6667L13.5357 9.66667H11.0357L12.9107 5H7.28572Z" fill="white"/>
</svg>
