<svg width="21" height="21" viewBox="0 0 21 21" fill="none" xmlns="http://www.w3.org/2000/svg">
<path d="M14.0417 9.25H11.4846L13.0996 10.675L14.0417 9.25ZM14.0417 4.25H6.95833V5.25625L11.3004 9.0875L14.0417 4.25ZM4.41542 4.7875L3.41667 5.66875L6.95833 8.79375V11.125H9.08333V16.75L11.6192 12.9063L14.5587 15.5L15.5575 14.6188L4.41542 4.7875Z" fill="white"/>
<path fill-rule="evenodd" clip-rule="evenodd" d="M1 5.916L1 14.585C1 17.605 3.139 19.5 6.166 19.5L14.334 19.5C17.361 19.5 19.5 17.615 19.5 14.585L19.5 5.916C19.5 2.886 17.361 1 14.334 1L6.166 1C3.139 1 1 2.886 1 5.916Z" stroke="white" stroke-width="1.5" stroke-linecap="round" stroke-linejoin="round"/>
</svg>
