<svg width="20" height="20" viewBox="0 0 20 20" fill="none" xmlns="http://www.w3.org/2000/svg">
<path fill-rule="evenodd" clip-rule="evenodd" d="M6.81072 13.1805C6.81072 13.4489 7.02605 13.6667 7.29138 13.6667C7.5567 13.6667 7.77204 13.4489 7.77204 13.1805V6.41384L9.3031 7.96839C9.49024 8.15898 9.79401 8.15898 9.98243 7.96969C10.1709 7.78039 10.1715 7.47247 9.98372 7.28187L7.63168 4.89301C7.49453 4.75298 7.28689 4.71214 7.10808 4.78669C6.928 4.86189 6.81072 5.03887 6.81072 5.23594V13.1805ZM4.93907 8.11137C4.81666 8.11137 4.69361 8.06405 4.60004 7.9694C4.41162 7.78011 4.41098 7.47283 4.59876 7.28224L5.53445 6.33123C5.72223 6.14064 6.026 6.14064 6.21442 6.32993C6.4022 6.51923 6.40284 6.82716 6.2157 7.01775L5.27938 7.96811C5.18581 8.06405 5.06212 8.11137 4.93907 8.11137ZM12.8344 15.213C12.8933 15.2377 12.9555 15.25 13.0177 15.25C13.1433 15.25 13.2663 15.2007 13.358 15.1067L15.371 13.0614C15.5581 12.8708 15.5575 12.5629 15.3697 12.3736C15.1813 12.1843 14.8769 12.185 14.6897 12.3749L13.4983 13.5865V6.8186C13.4983 6.55022 13.2836 6.3324 13.0177 6.3324C12.7524 6.3324 12.537 6.55022 12.537 6.8186V14.7638C12.537 14.9609 12.6543 15.1378 12.8344 15.213ZM11.2604 13.6677C11.3546 13.7637 11.4783 13.811 11.6013 13.811C11.7237 13.811 11.8468 13.7637 11.9404 13.669C12.1288 13.4797 12.1294 13.1724 11.9423 12.9818L11.0066 12.0308C10.8182 11.8402 10.5144 11.8402 10.3266 12.0295C10.1382 12.2188 10.1376 12.5268 10.3247 12.7174L11.2604 13.6677Z" fill="white"/>
<path d="M19.997 13.753C19.997 13.331 19.654 12.988 19.232 12.988C18.81 12.988 18.467 13.331 18.467 13.753C18.467 16.787 16.796 18.467 13.753 18.467L6.253 18.467C3.21 18.467 1.53 16.787 1.53 13.753L1.53 6.253C1.53 3.21 3.21 1.53 6.256 1.53L13.756 1.53C16.8 1.53 18.47 3.2 18.47 6.253V8.795V8.797C18.471 9.219 18.813 9.561 19.235 9.561V9.578H19.244C19.661 9.578 20 9.239 20 8.822V6.253C20 2.393 17.59 0 13.753 0L6.253 0C2.392 0 0 2.393 0 6.256L0 13.756C0 17.608 2.392 20 6.253 20L13.756 20C17.608 20 20 17.608 19.997 13.753" fill="white"/>
</svg>
