<svg width="21" height="21" viewBox="0 0 21 21" fill="none" xmlns="http://www.w3.org/2000/svg">
<path fill-rule="evenodd" clip-rule="evenodd" d="M1 5.916L1 14.585C1 17.605 3.139 19.5 6.166 19.5L14.334 19.5C17.361 19.5 19.5 17.615 19.5 14.585L19.5 5.916C19.5 2.886 17.361 1 14.334 1L6.166 1C3.139 1 1 2.886 1 5.916Z" stroke="white" stroke-width="1.5" stroke-linecap="round" stroke-linejoin="round"/>
<path fill-rule="evenodd" clip-rule="evenodd" d="M7.59908 5.01893C7.41526 4.88201 7.15385 4.89723 6.98728 5.06457L4.43867 7.62499L4.3934 7.67767C4.25767 7.86149 4.2734 8.12187 4.4402 8.2879L4.49288 8.33317C4.6767 8.4689 4.93708 8.45317 5.10311 8.28637L6.85069 6.53036V13.9067L6.85497 13.9703C6.88601 14.1991 7.08213 14.3755 7.31944 14.3755C7.57833 14.3755 7.78819 14.1656 7.78819 13.9067V6.53046L9.53589 8.28637L9.58836 8.33188C9.77155 8.46846 10.032 8.45393 10.1988 8.2879C10.3823 8.10527 10.383 7.80847 10.2003 7.62499L7.65172 5.06457L7.64874 5.06199C7.63428 5.04771 7.61889 5.03437 7.60267 5.02205L7.59908 5.01893ZM13.9892 7.02798C13.9581 6.79918 13.762 6.62283 13.5247 6.62283C13.2658 6.62283 13.056 6.8327 13.056 7.09158V14.4677L11.3082 12.712L11.2558 12.6665C11.0726 12.5299 10.8121 12.5444 10.6453 12.7104C10.4619 12.8931 10.4612 13.1899 10.6438 13.3733L13.1924 15.9338L13.1959 15.9368C13.2101 15.9507 13.2251 15.9638 13.2409 15.9758L13.2451 15.9794C13.4289 16.1163 13.6903 16.1011 13.8569 15.9338L16.4055 13.3733L16.4507 13.3207C16.5865 13.1368 16.5707 12.8765 16.4039 12.7104C16.2205 12.5278 15.9237 12.5285 15.741 12.712L13.9935 14.4671V7.09158L13.9892 7.02798Z" fill="white"/>
</svg>
